<svg width="20" height="20" viewBox="0 0 20 20" fill="none" xmlns="http://www.w3.org/2000/svg">
<g clip-path="url(#clip0_99_64)">
<path fill-rule="evenodd" clip-rule="evenodd" d="M17.68 16.7199C17.68 17.2498 17.2499 17.6799 16.72 17.6799H3.28002C2.7501 17.6799 2.32002 17.2498 2.32002 16.7199V7.1199C2.32002 6.58998 2.7501 6.1599 3.28002 6.1599H16.72C17.2499 6.1599 17.68 6.58998 17.68 7.1199V16.7199ZM17.68 2.3199V1.3599C17.68 0.829982 17.2499 0.399902 16.72 0.399902C16.1901 0.399902 15.76 0.829982 15.76 1.3599V2.3199H10.96V1.3599C10.96 0.829982 10.5299 0.399902 10 0.399902C9.47011 0.399902 9.04002 0.829982 9.04002 1.3599V2.3199H4.24002V1.3599C4.24002 0.829982 3.80994 0.399902 3.28002 0.399902C2.7501 0.399902 2.32002 0.829982 2.32002 1.3599V2.3199C1.25922 2.3199 0.400024 3.1791 0.400024 4.2399V17.6799C0.400024 18.7397 1.25922 19.5999 2.32002 19.5999H17.68C18.7408 19.5999 19.6 18.7397 19.6 17.6799V4.2399C19.6 3.1791 18.7408 2.3199 17.68 2.3199Z" fill="white"/>
<path d="M8.16585 13.578C5.56154 10.9733 5.68616 9.00341 6.87759 8.11005L7.14156 7.91344C7.20891 7.86389 7.28552 7.82837 7.36686 7.80899C7.4482 7.78961 7.5326 7.78677 7.61506 7.80063C7.69752 7.81449 7.77635 7.84477 7.84689 7.88968C7.91742 7.93459 7.97821 7.99321 8.02566 8.06206L8.69042 9.01857C8.77937 9.14658 8.81783 9.30297 8.7984 9.45764C8.77897 9.61231 8.70302 9.75433 8.58517 9.85636L7.94525 10.4096C7.78527 10.5481 7.70696 10.7581 7.77895 10.9573C7.91199 11.3278 8.23489 11.9816 8.99859 12.7448C9.76228 13.5085 10.4157 13.8314 10.7862 13.9649C10.9857 14.0365 11.1958 13.9586 11.3343 13.7982L11.8875 13.1591C11.9895 13.0413 12.1315 12.9653 12.2862 12.9459C12.4409 12.9264 12.5973 12.9649 12.7253 13.0539L13.6835 13.719C13.7523 13.7663 13.8108 13.827 13.8557 13.8973C13.9006 13.9677 13.9309 14.0464 13.9448 14.1287C13.9587 14.211 13.9559 14.2953 13.9367 14.3765C13.9174 14.4577 13.8819 14.5342 13.8325 14.6015L13.6346 14.8679C12.7417 16.0585 10.771 16.1827 8.16585 13.578Z" fill="white"/>
</g>
<defs>
<clipPath id="clip0_99_64">
<rect width="19.2" height="19.2" fill="white" transform="translate(0.400024 0.399902)"/>
</clipPath>
</defs>
</svg>
