<svg width="20" height="20" viewBox="0 0 20 20" fill="none" xmlns="http://www.w3.org/2000/svg">
<g clip-path="url(#clip0_114_47)">
<path fill-rule="evenodd" clip-rule="evenodd" d="M17.68 16.7199C17.68 17.2498 17.2499 17.6799 16.72 17.6799H3.28C2.75008 17.6799 2.32 17.2498 2.32 16.7199V7.1199C2.32 6.58998 2.75008 6.1599 3.28 6.1599H16.72C17.2499 6.1599 17.68 6.58998 17.68 7.1199V16.7199ZM17.68 2.3199V1.3599C17.68 0.829982 17.2499 0.399902 16.72 0.399902C16.1901 0.399902 15.76 0.829982 15.76 1.3599V2.3199H10.96V1.3599C10.96 0.829982 10.5299 0.399902 10 0.399902C9.47008 0.399902 9.04 0.829982 9.04 1.3599V2.3199H4.24V1.3599C4.24 0.829982 3.80992 0.399902 3.28 0.399902C2.75008 0.399902 2.32 0.829982 2.32 1.3599V2.3199C1.2592 2.3199 0.400002 3.1791 0.400002 4.2399V17.6799C0.400002 18.7397 1.2592 19.5999 2.32 19.5999H17.68C18.7408 19.5999 19.6 18.7397 19.6 17.6799V4.2399C19.6 3.1791 18.7408 2.3199 17.68 2.3199Z" fill="white"/>
<path d="M8.16577 13.578C5.56146 10.9733 5.68608 9.00341 6.87751 8.11005L7.14147 7.91344C7.20882 7.86389 7.28544 7.82837 7.36678 7.80899C7.44812 7.78961 7.53252 7.78677 7.61498 7.80063C7.69744 7.81449 7.77627 7.84477 7.8468 7.88968C7.91733 7.93459 7.97813 7.99321 8.02557 8.06206L8.69033 9.01857C8.77929 9.14658 8.81775 9.30297 8.79832 9.45764C8.77889 9.61231 8.70294 9.75433 8.58508 9.85636L7.94516 10.4096C7.78518 10.5481 7.70688 10.7581 7.77887 10.9573C7.9119 11.3278 8.23481 11.9816 8.9985 12.7448C9.7622 13.5085 10.4156 13.8314 10.7861 13.9649C10.9856 14.0365 11.1957 13.9586 11.3342 13.7982L11.8874 13.1591C11.9894 13.0413 12.1315 12.9653 12.2861 12.9459C12.4408 12.9264 12.5972 12.9649 12.7252 13.0539L13.6834 13.719C13.7522 13.7663 13.8108 13.827 13.8556 13.8973C13.9005 13.9677 13.9308 14.0464 13.9447 14.1287C13.9586 14.211 13.9559 14.2953 13.9366 14.3765C13.9173 14.4577 13.8819 14.5342 13.8324 14.6015L13.6346 14.8679C12.7416 16.0585 10.7709 16.1827 8.16577 13.578Z" fill="white"/>
</g>
<defs>
<clipPath id="clip0_114_47">
<rect width="19.2" height="19.2" fill="white" transform="translate(0.400002 0.399902)"/>
</clipPath>
</defs>
</svg>
