<svg width="60" height="60" viewBox="0 0 60 60" fill="none" xmlns="http://www.w3.org/2000/svg">
<rect x="0.5" y="0.5" width="59" height="59" rx="29.5" fill="#EBEBEB"/>
<rect x="0.5" y="0.5" width="59" height="59" rx="29.5" stroke="#052E17"/>
<g clip-path="url(#clip0_106_9)">
<path d="M30.2174 3.91309C15.691 3.91309 3.91309 15.691 3.91309 30.2174C3.91309 44.7438 15.691 56.5218 30.2174 56.5218C44.7438 56.5218 56.5218 44.7438 56.5218 30.2174C56.5218 15.691 44.7438 3.91309 30.2174 3.91309ZM39.9852 30.5152L25.189 39.3462C25.0831 39.4105 24.9481 39.4137 24.839 39.3494C24.7331 39.2883 24.6657 39.1745 24.6657 39.0476V30.2165V21.3854C24.6657 21.2603 24.7331 21.1447 24.839 21.0836C24.9481 21.021 25.0831 21.0242 25.189 21.0867L39.9852 29.9195C40.0911 29.9797 40.1538 30.096 40.1538 30.2164C40.1538 30.3394 40.0912 30.4535 39.9852 30.5152Z" fill="#052E17"/>
</g>
<defs>
<clipPath id="clip0_106_9">
<rect width="52.6087" height="52.6087" fill="white" transform="translate(3.91309 3.91309)"/>
</clipPath>
</defs>
</svg>
