<svg width="54" height="54" viewBox="0 0 54 54" fill="none" xmlns="http://www.w3.org/2000/svg">
<g clip-path="url(#clip0_81_156)">
<path d="M27.2174 0.913086C12.691 0.913086 0.913086 12.691 0.913086 27.2174C0.913086 41.7438 12.691 53.5218 27.2174 53.5218C41.7438 53.5218 53.5218 41.7438 53.5218 27.2174C53.5218 12.691 41.7438 0.913086 27.2174 0.913086ZM36.9852 27.5152L22.189 36.3462C22.0831 36.4105 21.9481 36.4137 21.839 36.3494C21.7331 36.2883 21.6657 36.1745 21.6657 36.0476V27.2165V18.3854C21.6657 18.2603 21.7331 18.1447 21.839 18.0836C21.9481 18.021 22.0831 18.0242 22.189 18.0867L36.9852 26.9195C37.0911 26.9797 37.1538 27.096 37.1538 27.2164C37.1538 27.3394 37.0912 27.4535 36.9852 27.5152Z" fill="#052E17"/>
</g>
<defs>
<clipPath id="clip0_81_156">
<rect width="52.6087" height="52.6087" fill="white" transform="translate(0.913086 0.913086)"/>
</clipPath>
</defs>
</svg>
