<svg width="20" height="20" viewBox="0 0 20 20" fill="none" xmlns="http://www.w3.org/2000/svg">
<path d="M18.8983 1.1016C18.4478 0.652252 17.8375 0.399902 17.2012 0.399902C16.5649 0.399902 15.9546 0.652252 15.5041 1.1016L15.405 1.19921H1.20051C0.988207 1.19921 0.784601 1.28354 0.634481 1.43365C0.484361 1.58376 0.400024 1.78735 0.400024 1.99963V18.7995C0.400024 19.0118 0.484361 19.2154 0.634481 19.3655C0.784601 19.5156 0.988207 19.5999 1.20051 19.5999H18.0017C18.214 19.5999 18.4176 19.5156 18.5677 19.3655C18.7178 19.2154 18.8022 19.0118 18.8022 18.7995V4.59162L18.8983 4.49551C19.3477 4.04507 19.6 3.4348 19.6 2.79855C19.6 2.16231 19.3477 1.55204 18.8983 1.1016ZM17.2072 6.19246V17.9991H1.99949V2.80306H13.807L7.84618 8.75892C6.76894 9.83624 6.12128 11.2692 6.02444 12.7896L6.01543 12.9277L6.00191 13.147C5.99493 13.2562 6.01042 13.3656 6.04741 13.4686C6.08441 13.5716 6.14213 13.6659 6.21701 13.7457C6.29189 13.8255 6.38233 13.8891 6.48276 13.9326C6.58319 13.9761 6.69146 13.9985 6.8009 13.9985C8.46195 13.9986 10.055 13.339 11.2298 12.1648L12.7677 10.6271L17.2072 6.19246Z" fill="white"/>
</svg>
